<svg version="1.1" viewBox="0 0 640 400" xmlns="http://www.w3.org/2000/svg" xmlns:xlink="http://www.w3.org/1999/xlink" xmlns:svgjs="http://svgjs.dev/svgjs" matcher="0.05107401945881995"><g viewBox="0 0 640 400" matcher="0.05107401945881995"><g matcher="0.05107401945881995"><g matcher="0.05107401945881995"><g matcher="0.05107401945881995"><svg viewBox="0 0 640 400" data-background-color="#4d7e3e" preserveAspectRatio="xMidYMid meet" height="400" width="640" xmlns="http://www.w3.org/2000/svg" xmlns:xlink="http://www.w3.org/1999/xlink"><rect width="640" height="400" x="0" y="0" opacity="1" fill="#4d7e3e" data-fill-palette-color="background" id="background"></rect><g id="tight-bounds" transform="matrix(1,0,0,1,122.24000000000001,50.70957168446881)"><svg viewBox="0 0 395.52 298.5808566310624" height="298.5808566310624" width="395.52"><g><svg viewBox="0 0 395.52 298.5808566310624" height="298.5808566310624" width="395.52"><g transform="matrix(1,0,0,1,0,152.0804128728214)"><svg viewBox="0 0 395.52 146.50044375824095" height="146.50044375824095" width="395.52"><g id="textblocktransform"><svg viewBox="0 0 395.52 146.50044375824095" height="146.50044375824095" width="395.52" id="textblock"><g><svg viewBox="0 0 395.52 75.49533677520475" height="75.49533677520475" width="395.52"><g transform="matrix(1,0,0,1,0,0)"><svg width="395.52" viewBox="-1.5342704057693481 -12.290809631347656 208.67694091796875 39.83147430419922" height="75.49533677520475" data-palette-color="#c9efc7"><path d="M1.933 11.612v0c-3.162-0.847-4.161-3.443-2.998-7.79v0c0.653-2.441 1.925-4.716 3.815-6.825v0c2.391-2.666 4.665-3.71 6.822-3.133v0c0.309 0.083 0.546 0.229 0.711 0.439 0.165 0.21 0.244 0.479 0.239 0.809v0c-1.616-0.433-3.364 0.49-5.244 2.768-1.88 2.278-3.157 4.676-3.831 7.194v0c-0.819 3.059-0.391 4.813 1.283 5.261v0c0.953 0.255 2.136-0.205 3.548-1.379 1.42-1.18 2.788-2.86 4.103-5.041 1.309-2.182 2.283-4.468 2.922-6.857v0l0.125-0.464c-0.654-0.727-1.135-1.546-1.444-2.457-0.308-0.911-0.415-1.543-0.32-1.897 0.097-0.361 0.349-0.659 0.757-0.895 0.408-0.236 0.78-0.309 1.114-0.219v0c0.483 0.129 0.839 0.694 1.069 1.694 0.231 0.994 0.288 2.068 0.172 3.224v0c0.654 0.755 1.283 1.213 1.888 1.375 0.599 0.16 1.106 0.186 1.522 0.076v0c-0.097 0.361-0.312 0.648-0.645 0.863-0.332 0.208-0.765 0.24-1.299 0.097-0.541-0.145-1.126-0.436-1.754-0.873v0c-0.686 2.46-1.723 4.839-3.112 7.138-1.382 2.301-2.942 4.119-4.68 5.455-1.74 1.342-3.328 1.821-4.763 1.437zM18.077 8.741l0.352 0.078c5.188-7.543 9.367-10.963 12.537-10.261v0c1.328 0.294 1.85 1.079 1.567 2.355v0c-0.315 0.558-0.723 1.291-1.224 2.197-0.503 0.913-1.274 2.575-2.314 4.988-1.04 2.412-1.77 4.568-2.192 6.469v0c-0.61 2.753-0.512 4.219 0.296 4.398v0c0.312 0.069 0.639 0.012 0.98-0.172 0.341-0.184 0.564-0.264 0.668-0.241v0c0.364 0.081 0.301 0.367-0.19 0.859v0c-0.171 0.153-0.465 0.344-0.885 0.572-0.421 0.235-0.813 0.311-1.178 0.231v0c-0.989-0.219-1.604-1.096-1.844-2.632-0.245-1.543-0.118-3.444 0.383-5.702v0c0.795-3.586 2.223-7.398 4.285-11.433v0c0.179-0.315 0.113-0.508-0.2-0.577v0c-0.202-0.045-0.456 0.008-0.762 0.158v0c-1.491 0.81-3.202 2.326-5.135 4.547-1.938 2.213-3.518 4.226-4.739 6.038-1.221 1.812-1.868 2.881-1.94 3.206-0.072 0.325-0.287 0.448-0.645 0.369v0c-0.833-0.185-1.022-1.302-0.568-3.352v0c0.858-3.873 2.033-7.293 3.524-10.261 1.484-2.969 2.786-4.33 3.905-4.082v0c0.469 0.104 0.639 0.442 0.513 1.015v0c-2.056 3.607-3.787 7.351-5.194 11.233zM37.035 25.196v0c-1.523-0.272-2.502-1.273-2.938-3.003-0.431-1.722-0.361-4.182 0.21-7.378 0.571-3.196 1.716-6.899 3.435-11.11 1.725-4.202 3.482-7.63 5.269-10.284 1.781-2.655 3.144-3.898 4.089-3.729v0c0.446 0.08 0.623 0.382 0.529 0.907v0c-0.775 1.155-1.808 2.921-3.099 5.298-1.285 2.378-2.401 4.593-3.35 6.644-0.947 2.045-1.908 4.468-2.882 7.267-0.974 2.799-1.644 5.226-2.01 7.28-0.368 2.061-0.447 3.682-0.239 4.864 0.208 1.188 0.666 1.846 1.375 1.972v0c0.597 0.107 1.222-0.073 1.874-0.539 0.652-0.466 1.145-0.95 1.478-1.453v0c0.183-0.265 0.433-0.302 0.751-0.109v0c0.122 0.076 0.135 0.193 0.039 0.352-0.095 0.152-0.238 0.347-0.429 0.583-0.191 0.237-0.52 0.598-0.986 1.084v0c-1.008 1.093-2.047 1.544-3.116 1.354zM44.791 17.152v0c0.585-3.896 1.509-7.31 2.772-10.242 1.256-2.933 2.504-4.306 3.743-4.119v0c0.607 0.091 0.86 0.466 0.761 1.125v0c-0.367 0.646-0.832 1.503-1.397 2.571-0.566 1.075-1.394 3.043-2.485 5.907-1.091 2.863-1.81 5.452-2.157 7.765v0c-0.055 0.369-0.278 0.525-0.666 0.467v0c-0.712-0.107-0.902-1.265-0.571-3.474zM53.467-1.365l-0.575 0.602c-0.554-0.083-0.751-0.652-0.594-1.707v0c0.095-0.633 0.366-1.27 0.813-1.911 0.448-0.647 0.985-0.924 1.611-0.83v0c0.527 0.079 0.746 0.422 0.655 1.029v0c-0.09 0.6-0.727 1.539-1.91 2.817zM56.016 15.602l0.358 0.041c4.374-8.043 8.173-11.88 11.399-11.512v0c1.351 0.154 1.953 0.88 1.805 2.179v0c-0.255 0.588-0.585 1.359-0.989 2.313-0.405 0.96-0.999 2.694-1.781 5.201-0.783 2.507-1.284 4.728-1.506 6.662v0c-0.32 2.802-0.069 4.25 0.753 4.344v0c0.318 0.036 0.637-0.055 0.957-0.274 0.32-0.218 0.533-0.322 0.639-0.309v0c0.371 0.042 0.338 0.334-0.1 0.874v0c-0.154 0.17-0.427 0.391-0.82 0.662-0.394 0.277-0.776 0.395-1.147 0.352v0c-1.007-0.115-1.71-0.923-2.109-2.425-0.405-1.509-0.476-3.413-0.214-5.711v0c0.417-3.65 1.44-7.589 3.07-11.818v0c0.145-0.332 0.059-0.517-0.259-0.553v0c-0.205-0.023-0.453 0.056-0.741 0.237v0c-1.398 0.961-2.942 2.647-4.634 5.057-1.697 2.403-3.058 4.569-4.083 6.499-1.025 1.929-1.557 3.06-1.595 3.391-0.038 0.331-0.239 0.476-0.603 0.435v0c-0.848-0.097-1.153-1.188-0.915-3.275v0c0.45-3.941 1.261-7.465 2.435-10.572 1.167-3.108 2.32-4.597 3.459-4.467v0c0.477 0.054 0.682 0.373 0.615 0.956v0c-1.669 3.802-3 7.706-3.994 11.713zM82.889 5.124v0c2.016 0.133 2.946 1.38 2.79 3.742v0c-0.089 1.357-0.636 2.751-1.639 4.181v0c-1.699 2.367-3.823 3.466-6.371 3.298v0c-0.399-0.026-0.727-0.115-0.985-0.265-0.257-0.151-0.444-0.363-0.559-0.638v0c1.883 0.124 3.681-0.85 5.394-2.922v0c1.393-1.672 2.138-3.236 2.234-4.693v0c0.072-1.091-0.331-1.665-1.209-1.723v0c-1.756-0.116-3.479 1.143-5.17 3.778v0c-1.819 2.866-2.832 5.866-3.039 8.999v0c-0.175 2.654 0.478 4.297 1.96 4.93v0c0.286 0.126 0.655 0.204 1.107 0.233 0.452 0.03 0.935-0.052 1.449-0.245 0.52-0.193 0.964-0.437 1.331-0.734v0c0.734-0.593 1.352-1.257 1.855-1.992v0c0.12-0.206 0.327-0.299 0.62-0.28v0c0.472 0.031 0.69 0.126 0.653 0.284v0c-0.099 0.287-0.427 0.757-0.985 1.408-0.565 0.658-1.08 1.178-1.546 1.562-0.466 0.383-1.063 0.718-1.79 1.004-0.72 0.287-1.44 0.406-2.158 0.359v0c-2.814-0.186-4.519-1.631-5.116-4.336v0c-0.18-0.92-0.238-1.86-0.175-2.818v0c0.117-1.776 0.657-3.688 1.621-5.736v0c1.507-3.094 3.451-5.271 5.832-6.53v0c1.293-0.663 2.592-0.952 3.896-0.866zM108.67 19.973v0c-0.071-3.273 0.436-7.421 1.52-12.446v0c0.074-0.268-0.005-0.387-0.238-0.355v0c-0.186 0.031-0.358 0.114-0.514 0.251v0c-1.152 1.005-2.405 2.856-3.761 5.553-1.349 2.69-2.426 5.141-3.231 7.352-0.799 2.211-1.194 3.503-1.186 3.877v0c0.007 0.32-0.19 0.484-0.589 0.493v0c-0.8 0.017-1.223-1.024-1.268-3.123v0c-0.087-3.992 0.235-7.6 0.965-10.824 0.723-3.223 1.658-4.847 2.805-4.872v0c0.507-0.011 0.766 0.263 0.778 0.823v0c-1.143 3.886-1.936 7.867-2.381 11.945v0l0.359-0.008c3.322-8.854 6.459-13.313 9.412-13.378v0c1.28-0.028 1.933 0.585 1.96 1.838v0c-1.172 3.753-1.999 7.442-2.48 11.067v0l0.32-0.007c0.839-1.879 1.689-3.591 2.549-5.137 0.853-1.552 1.865-3.001 3.036-4.347 1.171-1.339 2.233-2.019 3.187-2.04v0c1.28-0.028 1.933 0.571 1.959 1.798v0c-1.286 4.629-1.882 9.126-1.787 13.492v0c0.061 2.819 0.518 4.22 1.372 4.201v0c0.293-0.006 0.584-0.139 0.871-0.399 0.288-0.26 0.485-0.391 0.592-0.393v0c0.373-0.008 0.366 0.285-0.021 0.881v0c-0.103 0.189-0.33 0.444-0.683 0.765-0.353 0.328-0.703 0.495-1.05 0.503v0c-1.033 0.022-1.852-0.683-2.456-2.117-0.605-1.441-0.932-3.317-0.983-5.63v0c-0.089-4.072 0.26-7.661 1.046-10.765v0c0.049-0.188-0.019-0.28-0.206-0.276v0c-0.159 0.03-0.318 0.114-0.474 0.25v0c-1.491 1.339-3.128 3.792-4.912 7.359-1.79 3.566-2.678 5.666-2.663 6.299v0c0.007 0.32-0.2 0.484-0.62 0.494v0c-0.773 0.017-1.183-1.025-1.228-3.124zM129.891 24.028v0c-2.172 0.187-3.405-1.429-3.7-4.85v0c-0.176-2.039 0.136-4.321 0.935-6.846v0c1.107-3.541 2.745-6.035 4.916-7.48v0c0.937-0.616 1.831-0.961 2.681-1.034 0.85-0.073 1.534 0.055 2.051 0.386 0.524 0.33 0.868 0.675 1.032 1.035v0l0.284 0.497c-0.041 0.459-0.247 0.704-0.619 0.736v0c-0.425 0.037-0.679-0.042-0.763-0.235-0.084-0.194-0.168-0.36-0.254-0.5-0.092-0.139-0.295-0.322-0.609-0.55-0.314-0.227-0.657-0.325-1.029-0.293v0c-1.727 0.149-3.157 1.835-4.292 5.058v0c-1.285 3.717-1.792 7.154-1.52 10.308v0c0.137 1.587 0.524 2.354 1.162 2.299v0c0.505-0.044 1.167-0.666 1.987-1.868 0.813-1.208 1.651-2.702 2.514-4.482v0c1.502-3.067 2.702-5.723 3.599-7.969v0c0.739-1.984 1.587-3.017 2.543-3.1v0c0.498-0.043 0.774 0.241 0.826 0.852v0c-0.196 0.525-0.436 1.265-0.722 2.221-0.292 0.962-0.624 2.848-0.997 5.656-0.373 2.809-0.442 5.579-0.207 8.309 0.235 2.73 0.765 4.059 1.588 3.988v0c0.319-0.027 0.599-0.192 0.841-0.494 0.242-0.295 0.442-0.731 0.6-1.306v0c0.054-0.299 0.228-0.461 0.52-0.487v0c0.106-0.009 0.189 0.024 0.249 0.099 0.06 0.075 0.071 0.208 0.035 0.399-0.037 0.191-0.108 0.458-0.212 0.801-0.105 0.337-0.349 0.803-0.733 1.398-0.39 0.596-0.825 0.914-1.303 0.955v0c-1.116 0.096-2.035-0.557-2.758-1.96-0.717-1.41-1.161-3.108-1.333-5.094-0.172-1.993-0.19-3.915-0.055-5.767v0l-0.399 0.035c-2.872 6.042-5.157 9.137-6.858 9.283zM157.449 9.444v0c-0.997 0.137-1.646-0.888-1.945-3.075v0c-0.169-1.235-0.094-2.426 0.227-3.573v0c-1.577 1.797-3.182 4.965-4.815 9.501-1.639 4.538-2.371 7.451-2.194 8.739v0c0.043 0.317-0.143 0.504-0.559 0.561v0c-0.766 0.105-1.292-0.883-1.577-2.964v0c-0.538-3.93-0.63-7.544-0.275-10.843 0.349-3.298 1.091-5.025 2.228-5.18v0c0.502-0.069 0.793 0.187 0.872 0.769v0c-0.688 4.017-1.02 8.077-0.996 12.178v0l0.278-0.038c1.465-5.221 3.299-9.391 5.502-12.513v0c1.256-1.787 2.491-2.764 3.707-2.93v0c0.264-0.036 0.493 0.013 0.686 0.148 0.193 0.135 0.306 0.321 0.339 0.559v0c-0.16 0.21-0.346 0.518-0.56 0.925-0.214 0.406-0.45 1.333-0.709 2.782-0.26 1.442-0.278 2.982-0.053 4.62v0c0.028 0.205-0.024 0.316-0.156 0.334zM172.246 5.877v0c0.611-1.549 0.805-2.93 0.582-4.143-0.224-1.22-0.716-1.76-1.476-1.62v0c-0.911 0.167-1.803 1.161-2.677 2.982-0.871 1.827-1.569 3.843-2.093 6.047-0.53 2.212-0.95 4.244-1.261 6.097-0.311 1.853-0.433 2.963-0.365 3.331v0c0.032 0.32-0.12 0.51-0.454 0.571v0c-0.787 0.144-1.372-0.829-1.756-2.921v0c-0.764-4.164-1.114-8.421-1.051-12.77 0.068-4.357 0.448-7.904 1.139-10.64 0.685-2.735 1.525-4.194 2.522-4.377v0c0.42-0.077 0.668 0.094 0.745 0.514v0c-0.829 3.317-1.348 7.266-1.559 11.846v0c-0.215 3.557-0.254 7.339-0.115 11.347v0l0.315-0.058c1.577-8.219 3.857-12.602 6.84-13.15v0c1.862-0.342 2.988 0.55 3.378 2.675v0c0.249 1.357 0.008 2.889-0.723 4.595-0.732 1.7-1.823 2.94-3.272 3.722v0c0.368 0.231 1.336 1.907 2.905 5.028v0c0.556 1.111 1.225 2.097 2.006 2.957 0.781 0.86 1.519 1.226 2.214 1.098 0.689-0.126 1.158-0.47 1.408-1.03v0c0.157-0.029 0.248 0.022 0.272 0.153 0.024 0.131-0.005 0.34-0.089 0.626v0c-0.434 0.886-1.06 1.445-1.878 1.677v0c-1.075 0.197-2.186-0.165-3.331-1.087-1.14-0.93-2.092-1.999-2.855-3.208-0.765-1.215-1.496-2.43-2.194-3.644-0.696-1.208-1.111-1.88-1.244-2.018v0c-0.208-0.097-0.355-0.233-0.441-0.408v0c2.072-0.38 3.575-1.777 4.508-4.192zM186.889-4.416v0c1.968-0.457 3.219 0.467 3.754 2.773v0c0.308 1.325 0.189 2.817-0.356 4.477v0c-0.941 2.758-2.654 4.425-5.142 5.002v0c-0.39 0.09-0.729 0.101-1.019 0.032-0.29-0.07-0.53-0.219-0.72-0.449v0c1.838-0.427 3.276-1.88 4.315-4.359v0c0.849-2.004 1.108-3.717 0.778-5.139v0c-0.247-1.065-0.8-1.498-1.657-1.299v0c-1.714 0.398-2.999 2.103-3.853 5.114v0c-0.91 3.271-1.01 6.435-0.3 9.494v0c0.602 2.591 1.703 3.974 3.305 4.15v0c0.31 0.038 0.686 0.005 1.127-0.098 0.442-0.103 0.88-0.321 1.316-0.654 0.442-0.335 0.796-0.698 1.061-1.089v0c0.531-0.78 0.93-1.595 1.198-2.444v0c0.056-0.232 0.226-0.381 0.512-0.447v0c0.461-0.107 0.697-0.08 0.707 0.082v0c-0.012 0.304-0.19 0.848-0.534 1.633-0.35 0.793-0.692 1.441-1.027 1.943-0.335 0.502-0.809 0.996-1.422 1.48-0.606 0.483-1.26 0.806-1.962 0.969v0c-2.747 0.638-4.798-0.251-6.153-2.667v0c-0.439-0.829-0.767-1.711-0.984-2.646v0c-0.403-1.734-0.44-3.72-0.111-5.96v0c0.545-3.398 1.775-6.045 3.689-7.94v0c1.045-1.009 2.205-1.662 3.478-1.958zM194.663-4.233v0c-0.996 0.275-1.608 0.001-1.834-0.821v0c-0.085-0.308-0.01-0.537 0.225-0.685v0c0.019-0.033 0.054-0.056 0.105-0.07v0c0.204 0.137 0.518 0.147 0.943 0.03 0.418-0.115 1.082-0.326 1.993-0.633v0c0.309-3.592 1.012-5.539 2.111-5.843v0c0.437-0.121 0.723 0.063 0.858 0.552v0c-0.127 1.142-0.226 2.59-0.294 4.345v0c2.467-0.985 4.082-1.584 4.847-1.795v0c0.206-0.057 0.337 0.018 0.393 0.223v0c0.114 0.411-0.1 0.691-0.639 0.841v0c-0.276 0.076-1.828 0.795-4.654 2.156v0c-0.26 6.974 0.158 12.447 1.255 16.418 1.098 3.978 2.444 5.747 4.038 5.307v0c0.636-0.176 1.161-0.618 1.573-1.327 0.413-0.709 0.661-1.362 0.746-1.959v0c0.025-0.311 0.222-0.449 0.591-0.412v0c0.168 0.009 0.241 0.072 0.219 0.189v0c-0.064 0.37-0.151 0.806-0.262 1.307-0.111 0.501-0.411 1.165-0.903 1.992-0.491 0.827-1.08 1.336-1.767 1.525v0c-3.052 0.843-5.311-1.39-6.777-6.698v0c-1.24-4.492-1.732-9.519-1.477-15.081v0c-0.346 0.151-0.776 0.297-1.29 0.439z" opacity="1" transform="matrix(1,0,0,1,0,0)" fill="#c9efc7" class="wordmark-text-0" data-fill-palette-color="primary" id="text-0"></path></svg></g></svg></g><g transform="matrix(1,0,0,1,124.62303084620909,103.39518234810699)"><svg viewBox="0 0 146.2739383075818 43.10526141013396" height="43.10526141013396" width="146.2739383075818"><g transform="matrix(1,0,0,1,0,0)"><svg width="146.2739383075818" viewBox="1.399999976158142 -32.150001525878906 185.42001342773438 54.650001525878906" height="43.10526141013396" data-palette-color="#c9efc7"><path d="M34-26.5L34-26.5Q34-24.85 31.9-24.1L31.9-24.1Q30.4-23.5 28.4-23.5 26.4-23.5 24.2-24.05L24.2-24.05Q21.9-24.5 20.35-25.6L20.35-25.6Q20.25-25.7 20.25-25.8 20.25-25.9 20.38-25.9 20.5-25.9 20.55-25.85L20.55-25.85Q23.3-24.05 28.3-24.05L28.3-24.05Q30-24.05 31.4-24.68 32.8-25.3 32.8-26.55L32.8-26.55Q32.8-28.35 30.2-29.25L30.2-29.25Q28.4-29.9 26.15-29.9L26.15-29.9Q19.9-29.9 17.6-25.85L17.6-25.85Q16.9-24.6 16.9-23.25L16.9-23.25Q16.9-20.2 20.3-17.9L20.3-17.9Q22.55-16.4 26.55-13.9L26.55-13.9Q29.9-11.15 29.9-7.05L29.9-7.05Q29.9-1.5 24.2 1.85L24.2 1.85Q19.45 4.65 14.03 4.65 8.6 4.65 5.4 2.75L5.4 2.75Q1.4 0.45 1.4-3.93 1.4-8.3 4.63-11.08 7.85-13.85 12.1-13.85L12.1-13.85Q14.45-13.85 14.45-13.45L14.45-13.45Q14.45-13.35 13.65-13.35 12.85-13.35 12.8-13.35L12.8-13.35Q8.75-13.35 5.8-10.95L5.8-10.95Q2.65-8.5 2.65-4.38 2.65-0.25 5.5 2.02 8.35 4.3 12.2 4.3 16.05 4.3 20.4 2.5L20.4 2.5Q27.9-0.5 27.9-6.85L27.9-6.85Q27.9-10.75 24.45-13.15L24.45-13.15Q23.35-13.95 21.2-15.3 19.05-16.65 18.15-17.25L18.15-17.25Q14.75-19.55 14.75-22.85L14.75-22.85Q14.75-25.05 16.4-26.85L16.4-26.85Q14.9-26.7 13.85-25.4L13.85-25.4Q12.85-24 12.85-22.5L12.85-22.5Q12.85-19.05 16.1-16.6L16.1-16.6Q17.15-15.8 22.1-12.45L22.1-12.45Q25.3-9.8 25.3-6.25 25.3-2.7 21.8 0.33 18.3 3.35 14.65 3.35L14.65 3.35Q14.4 3.35 14.4 3.2L14.4 3.2Q14.4 2.9 14.75 2.9L14.75 2.9Q16.3 2.7 17.4 2.35L17.4 2.35Q20.1 1.25 22.25-1.15 24.4-3.55 24.4-6.2L24.4-6.2Q24.4-9.9 21.25-12.25L21.25-12.25Q20.3-13 18.32-14.33 16.35-15.65 15.4-16.35L15.4-16.35Q12.2-18.7 12.2-22.45L12.2-22.45Q12.2-24.3 13.5-25.73 14.8-27.15 16.6-27.15L16.6-27.15 16.7-27.15Q20.25-30.55 25.85-30.55 31.45-30.55 33.4-28.1L33.4-28.1Q34-27.35 34-26.5ZM45.05-15.05L45.05-15.05 44.6-11.25Q44.6-8.2 45.5-5.1L45.5-5.1Q46.8-0.8 49.05-0.8L49.05-0.8Q49.45-0.8 50.05-1.05 50.65-1.3 50.75-1.3L50.75-1.3Q51.15-1.3 51.15-0.85 51.15-0.4 50.12 0 49.1 0.4 48.55 0.4L48.55 0.4Q46 0.4 44.12-3.45 42.25-7.3 42.25-10.45L42.25-10.45Q42.25-11.05 42.3-11.3L42.3-11.3Q40.65-8.9 35.15-3.7L35.15-3.7Q34.5-1.5 34.05 0.7L34.05 0.7Q33.7 2.05 32.4 2.05L32.4 2.05Q31.8 2.05 31.9 1.65L31.9 1.65Q31.75 1.25 31.17 0.38 30.6-0.5 30.6-0.8 30.6-1.1 30.95-1.15L30.95-1.15Q31.85-1.7 33.2-2.9L33.2-2.9Q36.25-11.8 43.65-28.15L43.65-28.15Q43.75-28.35 43.95-28.9L43.95-28.9Q44.3-29.85 44.95-31L44.95-31Q45.5-32.15 47.6-32.15L47.6-32.15Q48.35-32.15 48.35-31.8L48.35-31.8Q48.35-31.8 45.35-26.15L45.35-26.15Q38.35-12.9 35.7-5.3L35.7-5.3Q41.55-11.15 43.45-14.95L43.45-14.95Q43.75-15.45 44.4-15.45 45.05-15.45 45.05-15.05ZM32.7-1.4L32.7-1.4 31.65-0.55Q31.9-0.2 32.15 0.5L32.15 0.5Q32.55-1 32.7-1.4ZM62.5-9.8L62.5-9.8 62.65-10.75Q62.65-11.55 62.12-12.08 61.6-12.6 60.9-12.6L60.9-12.6Q60.3-6.5 57.95-3.25L57.95-3.25 59.5-3.25Q58.85-2.85 58.52-2.85 58.2-2.85 58.07-2.9 57.95-2.95 57.8-2.95L57.8-2.95Q57.85-2.9 57.52-2.63 57.2-2.35 55.65-1 54.1 0.35 52.75 0.35L52.75 0.35Q50.8 0.35 50.8-2.15L50.8-2.15Q50.8-5.2 53.1-8.4L53.1-8.4Q52.3-10.35 52.3-12.53 52.3-14.7 53.15-16.3L53.15-16.3Q54.8-19.45 57.25-19.45L57.25-19.45Q60.35-19.45 60.85-14.15L60.85-14.15Q63.35-14.05 63.35-11.55L63.35-11.55Q63.35-9.5 62.7-9.5L62.7-9.5Q62.5-9.5 62.5-9.8ZM57.3-18.35L57.3-18.35Q55.7-18.35 54.35-15.2L54.35-15.2Q53.5-13.3 53.5-11.55 53.5-9.8 53.65-8.95L53.65-8.95Q56.7-13.05 60.05-14.05L60.05-14.05Q59.05-18.35 57.3-18.35ZM60.1-12.65L60.1-12.65Q59-12.5 56.67-10.63 54.35-8.75 53.8-7.65L53.8-7.65Q54.85-3.85 56.35-3.5L56.35-3.5Q57.55-4.6 58.82-7.85 60.1-11.1 60.1-12.65ZM53.45-7.2L53.45-7.2Q51.8-4.4 51.8-2.78 51.8-1.15 52.9-1.15L52.9-1.15Q54.25-1.15 56.15-3.25L56.15-3.25Q54.5-3.45 53.45-7.2ZM73.34-9.2L73.34-9.2Q75.54-6.1 75.54-4.03 75.54-1.95 73.82-0.9 72.09 0.15 70.47 0.15 68.84 0.15 67.04-0.53 65.24-1.2 65.24-2.15L65.24-2.15 65.29-2.3Q65.24-2.25 65.39-2.15L65.39-2.15Q65.74-1.95 67.07-1.3 68.39-0.65 69.72-0.65 71.04-0.65 72.17-1.45 73.29-2.25 73.29-3.5L73.29-3.5Q73.29-6.75 68.84-11.75L68.84-11.75Q63.19 1.4 61.62 5.28 60.04 9.15 59.32 11.83 58.59 14.5 58.59 17.45L58.59 17.45Q58.59 21.9 61.49 21.9L61.49 21.9Q63.39 21.9 66.09 20.25L66.09 20.25Q65.59 21.15 64.17 21.83 62.74 22.5 61.79 22.5L61.79 22.5Q59.39 22.5 57.52 20.63 55.64 18.75 55.64 16.45 55.64 14.15 56.57 11.75 57.49 9.35 59.19 5.75 60.89 2.15 68.19-12.6L68.19-12.6Q65.44-16.55 65.44-19.3 65.44-22.05 67.64-22.05L67.64-22.05Q70.49-22.05 70.49-18.6L70.49-18.6Q70.49-16.9 69.49-13.8L69.49-13.8Q72.09-10.95 73.34-9.2ZM68.94-14.25L68.94-14.25Q69.79-16.25 69.79-18.88 69.79-21.5 67.94-21.5L67.94-21.5Q67.09-21.5 67.09-19.7L67.09-19.7Q67.09-16.9 68.94-14.25ZM106.69-9.2L106.69-9.2Q106.89-7.55 107.31-7.08 107.74-6.6 107.74-6.38 107.74-6.15 107.59-6.15L107.59-6.15Q107.14-6.15 105.94-8.45L105.94-8.45Q105.24-6 104.14-4.15L104.14-4.15Q102.54-1.5 100.81-1.5 99.09-1.5 98.19-2.63 97.29-3.75 97.29-5.03 97.29-6.3 97.44-7.1L97.44-7.1Q95.59-4.65 93.59-2.7L93.59-2.7Q90.54 0.3 88.99 0.3L88.99 0.3Q87.54 0.3 87.54-1.6L87.54-1.6Q87.54-4.7 90.29-9.45L90.29-9.45Q90.04-9.2 89.04-7.78 88.04-6.35 87.91-6.35 87.79-6.35 87.79-6.5L87.79-6.5Q87.79-7.1 90.04-9.8L90.04-9.8Q92.34-12.5 93.21-13.15 94.09-13.8 94.76-13.8 95.44-13.8 95.44-13.5L95.44-13.5Q95.44-13.35 95.24-13.2L95.24-13.2Q93.79-11.65 91.29-7.33 88.79-3 88.79-1.45L88.79-1.45Q88.79-0.85 89.19-0.85L89.19-0.85Q92.34-0.85 97.74-9.1L97.74-9.1Q97.84-9.2 98.34-10.08 98.84-10.95 99.14-11.43 99.44-11.9 100.41-11.9 101.39-11.9 101.39-11.15L101.39-11.15Q99.49-8.2 99.49-4.9L99.49-4.9Q99.49-2.5 100.74-2.5 101.99-2.5 103.74-5.2L103.74-5.2Q105.09-7.45 105.59-9.05L105.59-9.05Q104.34-13.1 104.34-13.55L104.34-13.55Q104.34-14.4 105.09-14.4L105.09-14.4Q105.94-14.4 106.56-13.33 107.19-12.25 107.19-11.25 107.19-10.25 106.69-9.2ZM118.04-6.85L118.04-6.85Q118.14-6.85 118.14-6.75L118.14-6.75Q118.14-5.9 115.39-3L115.39-3Q113.19-0.8 112.04-0.8L112.04-0.8Q109.49-0.8 109.49-3.35L109.49-3.35Q109.49-5.25 110.49-8.15L110.49-8.15 109.59-6.75Q108.94-5.65 108.69-5.65L108.69-5.65Q108.59-5.65 108.59-5.93 108.59-6.2 109.34-7.2 110.09-8.2 111.54-11.3L111.54-11.3Q111.94-12.35 112.64-13.65L112.64-13.65Q112.89-14.1 113.81-14.1 114.74-14.1 114.74-13.6 114.74-13.1 114.24-12.1 113.74-11.1 113.39-10.95L113.39-10.95Q110.79-5.75 110.79-3.3L110.79-3.3Q110.79-1.65 111.89-1.65L111.89-1.65Q113.69-1.65 115.84-4.25L115.84-4.25Q116.74-5.3 116.94-5.53 117.14-5.75 117.34-6 117.54-6.25 117.69-6.4L117.69-6.4Q117.94-6.65 118.04-6.85ZM116.49-20.45Q117.59-20.95 117.84-20.95 118.09-20.95 118.09-20.83 118.09-20.7 116.94-19.4L116.94-19.4 116.19-17.85Q115.74-16.85 115.04-16.85L115.04-16.85Q114.04-16.85 114.04-17.9L114.04-17.9Q114.04-18.4 114.71-19.18 115.39-19.95 116.49-20.45ZM135.18-16.1L135.18-16.1Q135.18-15.25 126.73-12.85L126.73-12.85Q124.48-8.5 123.98-7.3L123.98-7.3Q122.68-4.2 122.68-1.35L122.68-1.35Q122.68 0.3 123.78 0.3L123.78 0.3Q125.13 0.3 127.33-1.6L127.33-1.6 129.58-3.55Q129.73-3.55 129.73-3.4 129.73-3.25 129.58-2.95L129.58-2.95Q128.78-1.75 126.88-0.28 124.98 1.2 123.88 1.2L123.88 1.2Q121.38 1.2 121.38-1.85L121.38-1.85Q121.38-4.05 122.48-7.3L122.48-7.3Q121.98-8.7 120.48-9.35L120.48-9.35Q120.03-9.55 119.13-9.9 118.23-10.25 117.68-10.5 117.13-10.75 117.13-11.53 117.13-12.3 117.83-12.45L117.83-12.45 119.18-12.45Q121.78-12.45 124.73-13.05L124.73-13.05 129.53-23.8Q129.88-24.7 131.21-24.7 132.53-24.7 132.53-24.2L132.53-24.2Q132.53-24.05 130.66-19.93 128.78-15.8 128.58-15.6L128.58-15.6 127.73-14.8 127.13-13.6Q128.33-13.95 134.43-16.1L134.43-16.1Q134.93-16.2 135.06-16.2 135.18-16.2 135.18-16.1ZM124.38-12.2L124.38-12.2Q121.58-11.55 119.33-11.2L119.33-11.2Q121.93-9.85 122.68-8L122.68-8Q123.18-9.4 124.38-12.2ZM143.53-15.05L143.53-15.05 143.08-11.25Q143.08-8.2 143.98-5.1L143.98-5.1Q145.28-0.8 147.53-0.8L147.53-0.8Q147.93-0.8 148.53-1.05 149.13-1.3 149.23-1.3L149.23-1.3Q149.63-1.3 149.63-0.85 149.63-0.4 148.61 0 147.58 0.4 147.03 0.4L147.03 0.4Q144.48 0.4 142.61-3.45 140.73-7.3 140.73-10.45L140.73-10.45Q140.73-11.05 140.78-11.3L140.78-11.3Q139.13-8.9 133.63-3.7L133.63-3.7Q132.98-1.5 132.53 0.7L132.53 0.7Q132.18 2.05 130.88 2.05L130.88 2.05Q130.28 2.05 130.38 1.65L130.38 1.65Q130.23 1.25 129.66 0.38 129.08-0.5 129.08-0.8 129.08-1.1 129.43-1.15L129.43-1.15Q130.33-1.7 131.68-2.9L131.68-2.9Q134.73-11.8 142.13-28.15L142.13-28.15Q142.23-28.35 142.43-28.9L142.43-28.9Q142.78-29.85 143.43-31L143.43-31Q143.98-32.15 146.08-32.15L146.08-32.15Q146.83-32.15 146.83-31.8L146.83-31.8Q146.83-31.8 143.83-26.15L143.83-26.15Q136.83-12.9 134.18-5.3L134.18-5.3Q140.03-11.15 141.93-14.95L141.93-14.95Q142.23-15.45 142.88-15.45 143.53-15.45 143.53-15.05ZM131.18-1.4L131.18-1.4 130.13-0.55Q130.38-0.2 130.63 0.5L130.63 0.5Q131.03-1 131.18-1.4ZM173.98-2.85L173.98-2.85 173.98-2.75Q172.23-0.35 170.13-0.35 168.03-0.35 168.03-4.05L168.03-4.05Q168.03-5.55 168.28-8.3L168.28-8.3Q166.38-4.7 162.03-1.3L162.03-1.3Q161.58-0.95 160.33 0L160.33 0Q160.08 0.2 159.45 0.2 158.83 0.2 158.83-0.1L158.83-0.1Q158.83-1.9 160.45-5.05 162.08-8.2 162.48-9.58 162.88-10.95 162.88-13.45L162.88-13.45Q162.68-12.65 161.08-9.9L161.08-9.9Q158.68-5.75 158.38-5.75 158.08-5.75 158.08-5.95L158.08-5.95 159.58-8.5Q161.98-12.7 162.68-15.55L162.68-15.55Q162.98-16.85 163.88-16.85 164.78-16.85 164.78-14.58 164.78-12.3 163.48-8.2L163.48-8.2 161.38-1.65Q165.58-4.85 168.38-9.5L168.38-9.5Q168.88-13 169.73-14.1L169.73-14.1Q170.03-14.45 170.85-14.45 171.68-14.45 171.68-13.9L171.68-13.9Q171.68-12.4 170.73-11.15L170.73-11.15Q169.63-7.4 169.63-3.85L169.63-3.85Q169.63-1.45 171.13-1.45L171.13-1.45Q171.88-1.45 172.65-2.1 173.43-2.75 173.65-2.95 173.88-3.15 173.83-3.15L173.83-3.15Q173.98-3.15 173.98-2.85ZM186.67-7.45Q186.82-7.45 186.82-7.25 186.82-7.05 186.72-6.9L186.72-6.9Q185.02-4.05 182.52-3.55L182.52-3.55Q182.37-1.8 181.45-0.6 180.52 0.6 178.45 0.6 176.37 0.6 174.52-1.38 172.67-3.35 172.67-5.7L172.67-5.7Q172.67-7.25 173.47-7.25L173.47-7.25Q173.97-7.25 174.47-6.5L174.47-6.5Q175.97-10 178.72-14.4L178.72-14.4Q180.47-17.1 182.82-17.1L182.82-17.1Q183.32-17.1 184-16.73 184.67-16.35 184.67-15.9L184.67-15.9Q184.67-15.55 184.25-15.55 183.82-15.55 183.62-15.6L183.62-15.6 183.22-15.6Q182.07-15.6 181.25-14.93 180.42-14.25 180.42-13.53 180.42-12.8 180.57-12.35L180.57-12.35 181.77-8.35Q182.47-5.85 182.47-4.25L182.47-4.25Q183.82-4.45 184.6-5.1 185.37-5.75 186.37-7.25L186.37-7.25Q186.52-7.45 186.67-7.45ZM180.42-3.6L180.42-3.6Q180.47-3.85 180.47-4.65 180.47-5.45 179.75-8.4 179.02-11.35 179.02-12.1 179.02-12.85 179.07-13.05L179.07-13.05Q177.77-11.7 174.82-5.85L174.82-5.85Q176.92-4.65 177.97-4.17 179.02-3.7 180.42-3.6ZM177.72-1.05L177.72-1.05Q179.67-1.05 180.37-3L180.37-3Q176.37-3 174.27-4.65L174.27-4.65Q174.37-3.5 175.47-2.27 176.57-1.05 177.72-1.05Z" opacity="1" transform="matrix(1,0,0,1,0,0)" fill="#c9efc7" class="slogan-text-1" data-fill-palette-color="secondary" id="text-1"></path></svg></g></svg></g></svg></g></svg></g><g transform="matrix(1,0,0,1,95.62426387284864,0)"><svg viewBox="0 0 204.2714722543027 146.50044375824095" height="146.50044375824095" width="204.2714722543027"><g><svg xmlns="http://www.w3.org/2000/svg" xmlns:xlink="http://www.w3.org/1999/xlink" version="1.1" x="0" y="0" viewBox="17.156997680664062 24.61199951171875 69.17601013183594 49.61199951171875" style="enable-background:new 0 0 100 100;" xml:space="preserve" height="146.50044375824095" width="204.2714722543027" class="icon-icon-0" data-fill-palette-color="accent" id="icon-0"><g fill="#31c48d" data-fill-palette-color="accent"><path d="M74.31 50.046H50.974c-0.828 0-1.499 0.671-1.499 1.499v15.03c0 0.828 0.671 1.499 1.499 1.499H74.31c0.828 0 1.499-0.671 1.499-1.499v-15.03C75.809 50.717 75.138 50.046 74.31 50.046zM72.811 65.077H52.473V53.045H72.81L72.811 65.077 72.811 65.077z" fill="#31c48d" data-fill-palette-color="accent"></path><path d="M76.496 24.612H26.997l-2.999 0.887-6.412 6.545c-0.275 0.28-0.429 0.657-0.429 1.05v5.706c0 2.934 1.565 5.509 3.903 6.935v26.99c0 0.828 0.671 1.499 1.499 1.499h7.562c0.008 0 0.014-0.002 0.022-0.002 0.008 0 0.014 0.002 0.022 0.002 0.828 0 1.499-0.671 1.499-1.499V53.045h10.748v19.679c0 0.828 0.671 1.499 1.499 1.499h36.714c0.828 0 1.499-0.671 1.499-1.499V45.91c2.507-1.383 4.209-4.052 4.209-7.111v-5.706c0.001-0.393-0.152-0.769-0.427-1.05l-6.412-6.545L76.496 24.612zM79.128 71.224H45.412V51.546c0-0.828-0.671-1.499-1.499-1.499H30.166c-0.828 0-1.499 0.671-1.499 1.499v19.679h-4.606v-24.4c0.396 0.06 0.802 0.091 1.215 0.091 2.728 0 5.145-1.352 6.618-3.422 1.473 2.07 3.89 3.422 6.618 3.422s5.145-1.352 6.618-3.422c1.473 2.07 3.89 3.422 6.618 3.422s5.146-1.352 6.618-3.422c1.473 2.069 3.89 3.422 6.618 3.422 2.728 0 5.145-1.352 6.618-3.422 1.473 2.07 3.89 3.422 6.618 3.422 0.308 0 0.611-0.019 0.91-0.052v24.361H79.128zM83.336 38.798c0 2.822-2.296 5.118-5.118 5.118s-5.118-2.296-5.118-5.118c0-0.828-0.671-1.499-1.499-1.499-0.828 0-1.499 0.671-1.499 1.499 0 2.822-2.296 5.118-5.118 5.118s-5.118-2.296-5.118-5.118c0-0.828-0.671-1.499-1.499-1.499-0.828 0-1.499 0.671-1.499 1.499 0 2.822-2.296 5.118-5.119 5.118s-5.118-2.296-5.118-5.118c0-0.828-0.671-1.499-1.499-1.499-0.828 0-1.499 0.671-1.499 1.499 0 2.822-2.296 5.118-5.118 5.118-2.822 0-5.118-2.296-5.118-5.118 0-0.828-0.671-1.499-1.499-1.499s-1.499 0.671-1.499 1.499c0 2.822-2.296 5.118-5.118 5.118s-5.118-2.296-5.118-5.118v-5.094l5.971-6.094h51.236l5.971 6.094L83.336 38.798 83.336 38.798z" fill="#31c48d" data-fill-palette-color="accent"></path></g></svg></g></svg></g><g></g></svg></g><defs></defs></svg><rect width="395.52" height="298.5808566310624" fill="none" stroke="none" visibility="hidden"></rect></g></svg></g></g></g></g><rect width="407.5198831905861" height="87.49489133079129" x="117.2402683169212" y="197.78962501673465" rx="2.5" ry="2.5" fill="transparent" class="logo-element-hover-target"></rect><rect width="158.2502888592885" height="55.10524398525098" x="241.87488495570352" y="301.18518751124304" rx="2.5" ry="2.5" fill="transparent" class="logo-element-hover-target"></rect><rect width="216.27151639320118" height="158.5004503051311" x="212.86423703501572" y="45.70956742214595" rx="2.5" ry="2.5" fill="transparent" class="logo-element-hover-target"></rect></svg>