<svg version="1.1" viewBox="0 0 640 400" xmlns="http://www.w3.org/2000/svg" xmlns:xlink="http://www.w3.org/1999/xlink" xmlns:svgjs="http://svgjs.dev/svgjs" matcher="0.44133748807252515"><g viewBox="0 0 640 400" matcher="0.44133748807252515"><g matcher="0.44133748807252515"><g matcher="0.44133748807252515"><g matcher="0.44133748807252515"><svg viewBox="0 0 640 400" data-background-color="#398378" preserveAspectRatio="xMidYMid meet" height="400" width="640" xmlns="http://www.w3.org/2000/svg" xmlns:xlink="http://www.w3.org/1999/xlink"><rect width="640" height="400" x="0" y="0" opacity="1" fill="#398378" data-fill-palette-color="background" id="background"></rect><g id="tight-bounds" transform="matrix(1,0,0,1,153.04772721475248,33.047727214752484)"><svg viewBox="0 0 333.90454557049503 333.90454557049503" height="333.90454557049503" width="333.90454557049503"><g><svg></svg></g><g><svg viewBox="0 0 333.90454557049503 333.90454557049503" height="333.90454557049503" width="333.90454557049503"><g><path d="M0 166.952c0-92.205 74.747-166.952 166.952-166.952 92.205 0 166.952 74.747 166.953 166.952 0 92.205-74.747 166.952-166.953 166.953-92.205 0-166.952-74.747-166.952-166.953zM166.952 329.633c89.846 0 162.681-72.835 162.681-162.681 0-89.846-72.835-162.681-162.681-162.68-89.846 0-162.681 72.835-162.68 162.68 0 89.846 72.835 162.681 162.68 162.681z" data-fill-palette-color="tertiary" fill="#ffffff" stroke="transparent"></path><ellipse rx="160.27418187383762" ry="160.27418187383762" cx="166.95227278524752" cy="166.95227278524752" fill="#ffffff" stroke="transparent" stroke-width="0" fill-opacity="1" data-fill-palette-color="tertiary"></ellipse></g><g transform="matrix(1,0,0,1,91.5379009260454,71.17305217166896)"><svg viewBox="0 0 150.82874371840424 191.55844122715712" height="191.55844122715712" width="150.82874371840424"><g><svg viewBox="0 0 150.82874371840424 191.55844122715712" height="191.55844122715712" width="150.82874371840424"><g><svg viewBox="0 0 213.1584412271571 270.7196103954714" height="191.55844122715712" width="150.82874371840424"><g transform="matrix(1,0,0,1,0,147.5355278144837)"><svg viewBox="0 0 213.1584412271571 123.18408258098773" height="123.18408258098773" width="213.1584412271571"><g id="textblocktransform"><svg viewBox="0 0 213.1584412271571 123.18408258098773" height="123.18408258098773" width="213.1584412271571" id="textblock"><g><svg viewBox="0 0 213.1584412271571 66.9428960847379" height="66.9428960847379" width="213.1584412271571"><g transform="matrix(1,0,0,1,0,0)"><svg width="213.1584412271571" viewBox="2.8499999046325684 -37.400001525878906 152.989990234375 48.05000305175781" height="66.9428960847379" data-palette-color="#398378"><path d="M24.65-13.95Q24.65-12.8 24.55-11.6L24.55-11.6 7.75-11.6Q8.05-7.25 9.95-5.2 11.85-3.15 14.85-3.15L14.85-3.15Q16.75-3.15 18.35-3.7 19.95-4.25 21.7-5.45L21.7-5.45 23.7-2.7Q19.5 0.6 14.5 0.6L14.5 0.6Q9 0.6 5.93-3 2.85-6.6 2.85-12.9L2.85-12.9Q2.85-17 4.17-20.18 5.5-23.35 7.98-25.15 10.45-26.95 13.8-26.95L13.8-26.95Q19.05-26.95 21.85-23.5 24.65-20.05 24.65-13.95L24.65-13.95ZM20.1-15L20.1-15.3Q20.1-19.2 18.55-21.25 17-23.3 13.9-23.3L13.9-23.3Q8.25-23.3 7.75-15L7.75-15 20.1-15ZM44.4-13.7L30.25-13.7 30.25-17.6 44.4-17.6 44.4-13.7ZM59.3-26.95Q62-26.95 64.15-26.2 66.3-25.45 68.25-23.95L68.25-23.95 66.3-21.05Q64.5-22.2 62.87-22.75 61.25-23.3 59.45-23.3L59.45-23.3Q57.2-23.3 55.9-22.38 54.6-21.45 54.6-19.85L54.6-19.85Q54.6-18.25 55.82-17.35 57.05-16.45 60.25-15.6L60.25-15.6Q64.65-14.5 66.82-12.6 69-10.7 69-7.4L69-7.4Q69-3.5 65.97-1.45 62.95 0.6 58.6 0.6L58.6 0.6Q52.6 0.6 48.65-2.85L48.65-2.85 51.1-5.65Q54.45-3.1 58.5-3.1L58.5-3.1Q61.1-3.1 62.62-4.17 64.15-5.25 64.15-7.1L64.15-7.1Q64.15-8.45 63.59-9.28 63.05-10.1 61.7-10.73 60.35-11.35 57.75-12.05L57.75-12.05Q53.55-13.15 51.67-15 49.8-16.85 49.8-19.7L49.8-19.7Q49.8-21.75 51.02-23.43 52.25-25.1 54.42-26.03 56.6-26.95 59.3-26.95L59.3-26.95ZM87.89-26.95Q91.49-26.95 93.52-24.8 95.54-22.65 95.54-18.9L95.54-18.9 95.54 0 90.94 0 90.94-18.25Q90.94-21.05 89.87-22.2 88.79-23.35 86.74-23.35L86.74-23.35Q84.69-23.35 83.09-22.15 81.49-20.95 80.09-18.75L80.09-18.75 80.09 0 75.49 0 75.49-36.9 80.09-37.4 80.09-22.7Q83.19-26.95 87.89-26.95L87.89-26.95ZM114.69-26.95Q120.24-26.95 123.32-23.25 126.39-19.55 126.39-13.2L126.39-13.2Q126.39-9.1 124.99-5.98 123.59-2.85 120.94-1.13 118.29 0.6 114.64 0.6L114.64 0.6Q109.09 0.6 105.99-3.1 102.89-6.8 102.89-13.15L102.89-13.15Q102.89-17.25 104.29-20.38 105.69-23.5 108.34-25.23 110.99-26.95 114.69-26.95L114.69-26.95ZM114.69-23.25Q107.84-23.25 107.84-13.15L107.84-13.15Q107.84-3.1 114.64-3.1L114.64-3.1Q121.44-3.1 121.44-13.2L121.44-13.2Q121.44-23.25 114.69-23.25L114.69-23.25ZM146.09-26.95Q151.14-26.95 153.49-23.35 155.84-19.75 155.84-13.2L155.84-13.2Q155.84-7 153.14-3.2 150.44 0.6 145.49 0.6L145.49 0.6Q141.09 0.6 138.59-2.4L138.59-2.4 138.59 10.1 133.99 10.65 133.99-26.35 137.94-26.35 138.29-22.8Q139.74-24.8 141.79-25.88 143.84-26.95 146.09-26.95L146.09-26.95ZM144.39-3.15Q150.89-3.15 150.89-13.2L150.89-13.2Q150.89-23.3 144.94-23.3L144.94-23.3Q142.99-23.3 141.39-22.15 139.79-21 138.59-19.2L138.59-19.2 138.59-6.35Q139.59-4.8 141.09-3.98 142.59-3.15 144.39-3.15L144.39-3.15Z" opacity="1" transform="matrix(1,0,0,1,0,0)" fill="#398378" class="wordmark-text-0" data-fill-palette-color="quaternary" id="text-0"></path></svg></g></svg></g><g transform="matrix(1,0,0,1,0,82.74650722083848)"><svg viewBox="0 0 213.1584412271571 40.43757536014926" height="40.43757536014926" width="213.1584412271571"><g transform="matrix(1,0,0,1,0,0)"><svg width="213.1584412271571" viewBox="2.5999999046325684 -42.29999923706055 284.6300048828125 54" height="40.43757536014926" data-palette-color="#398378"><path d="M12.9 0.85Q9.85 0.85 7.5 0.35 5.15-0.15 2.6-1.35L2.6-1.35 2.6-6Q7.35-3.35 12.9-3.35L12.9-3.35Q15.7-3.35 16.93-4.48 18.15-5.6 18.15-7.45L18.15-7.45Q18.15-9.25 17.18-10.1 16.2-10.95 14-11.55L14-11.55 10.75-12.35Q7.25-13.2 5.25-15.05 3.25-16.9 3.25-20.5L3.25-20.5Q3.25-24.25 5.7-26.35 8.15-28.45 12.9-28.45L12.9-28.45Q15.35-28.45 17.45-27.98 19.55-27.5 21.65-26.65L21.65-26.65 21.65-22.25Q19.6-23.2 17.6-23.73 15.6-24.25 13.05-24.25L13.05-24.25Q10.4-24.25 9.22-23.23 8.05-22.2 8.05-20.65L8.05-20.65Q8.05-18.95 9.08-18.07 10.1-17.2 12.05-16.7L12.05-16.7 15.35-15.95Q17.85-15.35 19.48-14.45 21.1-13.55 22.03-11.93 22.95-10.3 22.95-7.6L22.95-7.6Q22.95-3.55 20.23-1.35 17.5 0.85 12.9 0.85L12.9 0.85ZM43.35-28.25Q48.45-28.25 50.92-25.55 53.4-22.85 53.4-16.65L53.4-16.65 53.4 0 48.7 0 48.7-16.65Q48.7-20.55 47.37-22.2 46.05-23.85 42.7-23.85L42.7-23.85Q38.8-23.85 34.9-20.45L34.9-20.45 34.9 0 30.2 0 30.2-42.3 34.9-42.3 34.9-24.7Q38.95-28.25 43.35-28.25L43.35-28.25ZM74.1 0.85Q69.7 0.85 66.62-1.07 63.55-3 62-6.33 60.45-9.65 60.45-13.8L60.45-13.8Q60.45-17.95 62-21.28 63.55-24.6 66.62-26.53 69.7-28.45 74.1-28.45L74.1-28.45Q78.5-28.45 81.57-26.53 84.65-24.6 86.17-21.28 87.7-17.95 87.7-13.8L87.7-13.8Q87.7-9.65 86.17-6.33 84.65-3 81.57-1.07 78.5 0.85 74.1 0.85L74.1 0.85ZM74.1-3.4Q78.25-3.4 80.52-6.3 82.8-9.2 82.8-13.8L82.8-13.8Q82.8-18.4 80.52-21.28 78.25-24.15 74.1-24.15L74.1-24.15Q69.95-24.15 67.65-21.28 65.35-18.4 65.35-13.8L65.35-13.8Q65.35-9.2 67.65-6.3 69.95-3.4 74.1-3.4L74.1-3.4ZM107.69-28.45Q113.29-28.45 116.62-24.7 119.94-20.95 119.94-13.8L119.94-13.8Q119.94-6.65 116.62-2.9 113.29 0.85 107.69 0.85L107.69 0.85Q103.64 0.85 99.69-2.5L99.69-2.5 99.69 11.7 94.99 11.7 94.99-27.65 99.69-27.65 99.69-25.05Q103.69-28.45 107.69-28.45L107.69-28.45ZM107.04-3.5Q110.99-3.5 113.04-6.13 115.09-8.75 115.09-13.8L115.09-13.8Q115.09-18.85 113.04-21.45 110.99-24.05 107.04-24.05L107.04-24.05Q103.29-24.05 99.69-20.95L99.69-20.95 99.69-6.6Q103.39-3.5 107.04-3.5L107.04-3.5ZM150.24 0.85Q145.84 0.85 142.76-1.07 139.69-3 138.14-6.33 136.59-9.65 136.59-13.8L136.59-13.8Q136.59-17.95 138.14-21.28 139.69-24.6 142.76-26.53 145.84-28.45 150.24-28.45L150.24-28.45Q154.64-28.45 157.71-26.53 160.79-24.6 162.31-21.28 163.84-17.95 163.84-13.8L163.84-13.8Q163.84-9.65 162.31-6.33 160.79-3 157.71-1.07 154.64 0.85 150.24 0.85L150.24 0.85ZM150.24-3.4Q154.39-3.4 156.66-6.3 158.94-9.2 158.94-13.8L158.94-13.8Q158.94-18.4 156.66-21.28 154.39-24.15 150.24-24.15L150.24-24.15Q146.09-24.15 143.79-21.28 141.49-18.4 141.49-13.8L141.49-13.8Q141.49-9.2 143.79-6.3 146.09-3.4 150.24-3.4L150.24-3.4ZM184.29-28.25Q189.39-28.25 191.86-25.55 194.34-22.85 194.34-16.65L194.34-16.65 194.34 0 189.64 0 189.64-16.65Q189.64-20.55 188.31-22.2 186.99-23.85 183.64-23.85L183.64-23.85Q179.74-23.85 175.84-20.45L175.84-20.45 175.84 0 171.14 0 171.14-27.65 175.84-27.65 175.84-24.7Q179.94-28.25 184.29-28.25L184.29-28.25ZM210.13 0.65Q206.38 0.65 204.73-0.85 203.08-2.35 203.08-5.9L203.08-5.9 203.08-42.3 207.78-42.3 207.78-7.15Q207.78-5.15 208.41-4.42 209.03-3.7 210.78-3.7L210.78-3.7Q212.18-3.7 213.28-4L213.28-4 213.28 0.3Q211.28 0.65 210.13 0.65L210.13 0.65ZM219.03-32.85L219.03-40.4 223.73-40.4 223.73-32.85 219.03-32.85ZM219.03 0L219.03-27.65 223.73-27.65 223.73 0 219.03 0ZM245.88-28.25Q250.98-28.25 253.45-25.55 255.93-22.85 255.93-16.65L255.93-16.65 255.93 0 251.23 0 251.23-16.65Q251.23-20.55 249.9-22.2 248.58-23.85 245.23-23.85L245.23-23.85Q241.33-23.85 237.43-20.45L237.43-20.45 237.43 0 232.73 0 232.73-27.65 237.43-27.65 237.43-24.7Q241.53-28.25 245.88-28.25L245.88-28.25ZM267.88-13.45Q267.98-8.85 270.18-6.1 272.38-3.35 277.18-3.35L277.18-3.35Q280.82-3.35 285.18-5.4L285.18-5.4 286.63-1.5Q282.07 0.85 276.78 0.85L276.78 0.85Q272.38 0.85 269.28-1 266.18-2.85 264.57-6.15 262.98-9.45 262.98-13.85L262.98-13.85Q262.98-18.5 264.65-21.78 266.32-25.05 269.18-26.75 272.03-28.45 275.57-28.45L275.57-28.45Q281.03-28.45 284.13-25.05 287.23-21.65 287.23-15.3L287.23-15.3 287.23-13.45 267.88-13.45ZM275.57-24.25Q269.38-24.25 268.18-17.4L268.18-17.4 282.28-17.4Q282.03-20.9 280.38-22.58 278.73-24.25 275.57-24.25L275.57-24.25Z" opacity="1" transform="matrix(1,0,0,1,0,0)" fill="#398378" class="slogan-text-1" data-fill-palette-color="quaternary" id="text-1"></path></svg></g></svg></g></svg></g></svg></g><g transform="matrix(1,0,0,1,40.713262274387006,0)"><svg viewBox="0 0 131.7319166783831 131.7319166783831" height="131.7319166783831" width="131.7319166783831"><g><svg xmlns="http://www.w3.org/2000/svg" xmlns:xlink="http://www.w3.org/1999/xlink" version="1.1" viewBox="0 0 96 96" x="0" y="0" height="131.7319166783831" width="131.7319166783831" class="icon-icon-0" data-fill-palette-color="quaternary" id="icon-0"><path d="M86 96h-76c-1.104 0-2-0.9-2-2v-38c0-1.1 0.896-2 2-2s2 0.9 2 2v36h72v-36c0-1.1 0.9-2 2-2s2 0.9 2 2v38c0 1.1-0.9 2-2 2z" fill="#398378" data-fill-palette-color="quaternary"></path><path d="M78 88h-60c-1.104 0-2-0.9-2-2v-30c0-1.1 0.896-2 2-2s2 0.9 2 2v28h56v-28c0-1.1 0.9-2 2-2s2 0.9 2 2v30c0 1.1-0.9 2-2 2z" fill="#398378" data-fill-palette-color="quaternary"></path><path d="M87 58c-3.084 0-5.632-1.4-7.22-3.728-1.836 2.276-4.64 3.728-7.78 3.728-3.264 0-6.172-1.58-8-4.008-1.828 2.428-4.736 4.008-8 4.008s-6.172-1.58-8-4.008c-1.828 2.428-4.732 4.008-8 4.008s-6.172-1.58-8-4.008c-1.828 2.428-4.732 4.008-8 4.008s-6.172-1.58-8-4.008c-1.828 2.428-4.732 4.008-8 4.008-4.412 0-8-4.484-8-10v-2c0-0.372 0.104-0.736 0.3-1.052l9.876-16c0.364-0.588 1.008-0.948 1.7-0.948h72.124c0.688 0 1.332 0.356 1.696 0.94l10 16c0.204 0.316 0.304 0.684 0.304 1.06v2c0 5.888-3.7 10-9 10zM82 48c0 2.764 1.308 6 5 6s5-3.236 5-6v-1.42l-9.108-14.58h-69.9l-8.992 14.572v1.428c0 3.252 1.832 6 4 6 3.308 0 6-2.692 6-6 0-1.1 0.896-2 2-2s2 0.9 2 2c0 3.308 2.692 6 6 6s6-2.692 6-6c0-1.1 0.896-2 2-2s2 0.9 2 2c0 3.308 2.692 6 6 6s6-2.692 6-6c0-1.1 0.896-2 2-2s2 0.9 2 2c0 3.308 2.692 6 6 6s6-2.692 6-6c0-1.1 0.9-2 2-2s2 0.9 2 2c0 3.308 2.692 6 6 6s6-2.692 6-6c0-1.1 0.9-2 2-2s2 0.9 2 2z" fill="#398378" data-fill-palette-color="quaternary"></path><path d="M74 20h-52c-1.104 0-2-0.9-2-2v-16c0-1.1 0.896-2 2-2h52c1.1 0 2 0.9 2 2v16c0 1.1-0.9 2-2 2zM24 16h48v-12h-48v12z" fill="#398378" data-fill-palette-color="quaternary"></path><path d="M32 20h4v8h-4v-8z" fill="#398378" data-fill-palette-color="quaternary"></path><path d="M60 20h4v8h-4v-8z" fill="#398378" data-fill-palette-color="quaternary"></path></svg></g></svg></g><g></g></svg></g></svg></g></svg></g></svg></g><defs></defs></svg><rect width="333.90454557049503" height="333.90454557049503" fill="none" stroke="none" visibility="hidden"></rect></g></svg></g></g></g></g><rect width="162.81888714742126" height="59.36812734372222" x="239.59056629521916" y="203.61539288634611" rx="2.5" ry="2.5" fill="transparent" class="logo-element-hover-target"></rect><rect width="162.81813576532852" height="40.61325461750124" x="239.590917590743" y="262.16599350012746" rx="2.5" ry="2.5" fill="transparent" class="logo-element-hover-target"></rect><rect width="105.21215905706663" height="105.2121785734846" x="268.3939108239785" y="99.22077519653385" rx="2.5" ry="2.5" fill="transparent" class="logo-element-hover-target"></rect></svg>